<svg xmlns="http://www.w3.org/2000/svg" viewBox="0 0 127 27" width="127" height="27">
	<style>
		tspan { white-space:pre }
		.shp0 { fill: #171717 } 
	</style>
	<g id="02">
		<g id="logos">
			<path id="fasa" class="shp0" d="M81.57 25.37C81.8 24.23 82.04 23.09 82.27 21.96C82.33 21.95 82.36 21.94 82.39 21.94C84.46 21.91 86.52 21.88 88.59 21.87C92.79 21.84 96.99 21.82 101.19 21.79C104.24 21.77 107.28 21.74 110.33 21.7C110.82 21.7 111.31 21.66 111.8 21.66C112.95 21.64 113.82 21 114.15 19.89C114.18 19.79 114.15 19.66 114.11 19.56C113.05 17.26 111.98 14.96 110.92 12.66C109.98 10.62 109.05 8.59 108.12 6.55C108.08 6.47 108.05 6.39 108.01 6.27C108.16 6.27 108.28 6.27 108.41 6.27C110.11 6.25 111.81 6.24 113.51 6.2C113.81 6.2 113.92 6.3 114.01 6.57C114.95 9.33 115.9 12.09 116.85 14.85C116.87 14.92 116.9 14.99 116.95 15.12C117.85 12.12 118.73 9.17 119.62 6.18C121.43 6.18 123.24 6.18 125.09 6.18C124.94 6.59 124.78 7.02 124.62 7.44C122.92 11.85 121.22 16.27 119.5 20.68C119.14 21.62 118.71 22.52 118.07 23.31C117.41 24.14 116.55 24.62 115.56 24.84C114.78 25.01 113.97 25.11 113.18 25.12C109.99 25.17 106.81 25.18 103.63 25.21C101.1 25.23 98.58 25.25 96.06 25.27C93.13 25.3 90.19 25.34 87.26 25.36C85.38 25.38 83.5 25.37 81.57 25.37ZM79.27 6.48C80.08 6.48 80.88 6.48 81.69 6.47C81.91 6.47 81.92 6.6 81.92 6.76C81.92 7.3 81.92 7.83 81.92 8.42C82 8.34 82.06 8.3 82.1 8.25C83.1 7.04 84.35 6.34 85.91 6.19C87.15 6.06 88.32 6.23 89.42 6.81C90.9 7.59 91.73 8.92 92.26 10.47C92.74 11.88 92.76 13.33 92.61 14.8C92.49 15.97 92.13 17.06 91.43 18C90.58 19.15 89.44 19.87 88.06 20.16C86.54 20.49 85.05 20.37 83.65 19.63C83.23 19.4 82.84 19.1 82.41 18.81C82.25 19.49 82.08 20.17 81.92 20.86C81.59 22.26 81.26 23.67 80.94 25.08C80.88 25.35 80.77 25.42 80.51 25.42C79.09 25.41 77.68 25.41 76.26 25.42C75.7 25.42 75.14 25.45 74.59 25.47C74.51 25.47 74.44 25.45 74.34 25.43C74.67 24.09 75.03 22.78 75.3 21.45C75.65 19.78 76.57 18.39 77.27 16.89C78.29 14.71 79.34 12.54 80.35 10.35C80.64 9.72 80.75 9.04 80.71 8.34C80.67 7.55 80.22 7.09 79.58 6.75C79.47 6.69 79.36 6.64 79.25 6.59C79.26 6.55 79.26 6.51 79.27 6.48ZM82.31 13.28C82.34 13.48 82.37 13.77 82.4 14.06C82.49 14.84 82.77 15.52 83.44 15.98C84.63 16.81 86.32 16.5 86.85 15.02C87.26 13.86 87.27 12.64 86.84 11.48C86.21 9.77 84.05 9.48 82.93 10.91C82.4 11.58 82.37 12.39 82.31 13.28ZM98.67 10.77C96.89 10.61 95.13 10.45 93.37 10.29C93.71 8.31 94.88 7.11 96.7 6.56C98.29 6.07 99.93 6.01 101.58 6.05C102.33 6.07 103.08 6.08 103.83 6.13C105.04 6.23 106.21 6.47 107.23 7.23C108.08 7.86 108.54 8.74 108.75 9.75C108.89 10.4 108.94 11.07 108.96 11.74C108.99 12.87 108.96 14.01 108.97 15.15C108.99 16.73 108.8 18.34 109.74 19.82C109.58 19.83 109.48 19.84 109.38 19.84C107.84 19.84 106.3 19.84 104.76 19.85C104.54 19.85 104.4 19.8 104.31 19.58C104.15 19.17 103.99 18.76 103.81 18.32C103.57 18.49 103.28 18.71 103 18.92C102 19.65 100.87 20.01 99.67 20.11C98.9 20.18 98.12 20.23 97.35 20.18C95.8 20.08 94.4 19.59 93.51 18.19C92.4 16.45 92.97 13.84 95.23 12.95C96.25 12.54 97.32 12.33 98.38 12.12C99.99 11.79 101.6 11.51 103.15 10.93C103.38 10.85 103.49 10.79 103.44 10.49C103.32 9.63 102.96 9.22 102.11 9.2C101.53 9.18 100.94 9.19 100.36 9.27C99.69 9.36 99.16 9.7 98.87 10.36C98.81 10.51 98.73 10.65 98.67 10.77ZM103.49 13.49C102.87 13.67 102.29 13.82 101.73 14C100.91 14.26 100.08 14.51 99.29 14.83C98.8 15.03 98.53 15.47 98.57 16.02C98.62 16.59 98.92 17.04 99.5 17.14C100.04 17.22 100.63 17.27 101.17 17.18C101.95 17.04 102.67 16.66 103.12 15.94C103.59 15.19 103.5 14.35 103.49 13.49ZM6.55 19.07C6.83 19.05 7.04 19.04 7.25 19.04C10.7 19 14.14 18.97 17.59 18.95C17.84 18.95 17.97 18.89 18.09 18.66C18.87 17.16 19.67 15.67 20.46 14.18C20.52 14.07 20.57 13.96 20.64 13.8C14.19 13.12 7.76 12.44 1.34 11.77C1.34 11.75 1.34 11.73 1.34 11.71C1.45 11.71 1.55 11.71 1.65 11.71C8.28 11.66 14.9 11.61 21.52 11.57C21.77 11.56 21.92 11.5 22.01 11.26C22.07 11.1 22.17 10.96 22.27 10.76C18.18 10.08 14.11 9.4 10.04 8.73C10.05 8.7 10.05 8.67 10.05 8.64C11.16 8.64 12.28 8.64 13.39 8.64C15.89 8.62 18.39 8.6 20.89 8.6C21.24 8.6 21.46 8.52 21.59 8.17C21.71 7.87 21.9 7.61 22.03 7.32C22.14 7.09 22.27 7 22.53 7.01C22.96 7.02 23.4 6.97 23.83 7C24.22 7.03 24.42 6.86 24.52 6.46C18.16 5.79 11.82 5.12 5.48 4.45C5.48 4.43 5.48 4.42 5.48 4.4C5.63 4.4 5.78 4.4 5.93 4.4C12.4 4.34 18.88 4.27 25.35 4.24C25.95 4.24 26.29 3.99 26.61 3.51C21.4 2.96 16.21 2.41 11.02 1.86C11.02 1.84 11.02 1.83 11.02 1.81C11.07 1.8 11.11 1.8 11.15 1.8C18.08 1.7 25.01 1.59 31.94 1.53C33.39 1.52 34.84 1.67 36.4 1.74C36.13 2.12 35.94 2.39 35.74 2.67C35.26 3.34 34.77 3.99 34.3 4.67C34.16 4.87 34 4.91 33.78 4.89C33.32 4.85 32.85 4.82 32.38 4.81C31.61 4.79 31 5.14 30.55 5.76C30.29 6.11 30.08 6.51 29.82 6.93C30.73 6.93 31.56 6.93 32.45 6.93C32.37 7.1 32.32 7.22 32.26 7.34C31.72 8.35 31.17 9.37 30.64 10.39C30.53 10.6 30.41 10.69 30.17 10.69C29.5 10.68 28.82 10.71 28.15 10.7C27.91 10.7 27.79 10.79 27.68 11C26.08 14.02 24.48 17.03 22.89 20.05C22.77 20.28 22.65 20.35 22.39 20.33C20.62 20.18 18.84 20.05 17.07 19.92C15.43 19.79 13.8 19.68 12.16 19.56C10.33 19.42 8.5 19.28 6.67 19.13C6.65 19.13 6.64 19.12 6.55 19.07ZM30.69 10.73C31.71 9.33 32.95 8.27 34.5 7.58C35.69 7.06 36.95 6.82 38.23 6.67C39.77 6.5 41.32 6.51 42.87 6.62C43.47 6.66 44.08 6.75 44.66 6.9C46.12 7.28 46.7 8.27 46.33 9.75C46.17 10.37 45.95 11 45.66 11.57C44.67 13.49 43.64 15.38 42.63 17.29C42.16 18.18 41.73 19.09 41.79 20.19C40.05 20.19 38.34 20.19 36.53 20.19C36.6 19.7 36.67 19.19 36.74 18.76C35.91 19.14 35.06 19.61 34.16 19.93C32.35 20.57 30.48 20.79 28.58 20.45C27.68 20.29 26.9 19.91 26.63 18.92C26.47 18.32 26.58 17.74 26.83 17.18C27.72 15.23 29.23 13.97 31.25 13.38C32.59 12.99 33.97 12.77 35.33 12.47C36.94 12.11 38.54 11.74 40.14 11.37C40.48 11.29 40.78 10.7 40.76 10.23C40.75 9.82 40.44 9.7 40.14 9.67C38.92 9.55 37.72 9.6 36.66 10.34C36.36 10.55 36.1 10.83 35.81 11.07C35.72 11.14 35.59 11.22 35.49 11.21C34.03 11.08 32.56 10.94 31.1 10.8C30.98 10.79 30.85 10.76 30.69 10.73ZM38.98 13.93C38.2 14.12 37.45 14.28 36.71 14.49C35.8 14.74 34.89 14.98 34.01 15.3C33.37 15.53 32.88 15.98 32.65 16.66C32.49 17.15 32.67 17.53 33.16 17.63C33.56 17.7 33.99 17.74 34.38 17.68C36.61 17.32 38.14 16.06 38.98 13.93ZM66.71 20.52C65.08 20.43 63.38 20.35 61.68 20.24C61.24 20.21 60.78 20.1 60.35 19.96C59.19 19.58 58.67 18.55 59.11 17.33C59.87 15.2 61.29 13.69 63.47 12.96C64.84 12.5 66.25 12.21 67.7 12.12C69.67 12 71.64 11.89 73.61 11.77C73.87 11.76 74.14 11.76 74.39 11.69C74.58 11.64 74.8 11.54 74.92 11.39C75.21 11.02 75.49 10.63 75.68 10.21C75.94 9.65 75.74 9.17 75.15 8.97C74.7 8.81 74.2 8.71 73.72 8.7C72.06 8.64 70.43 8.9 68.82 9.26C67.99 9.45 67.46 10.06 67.21 10.86C67.05 11.38 66.73 11.57 66.25 11.62C65.56 11.68 64.86 11.65 64.21 11.38C63.8 11.21 63.76 11.11 63.9 10.7C64.61 8.55 66.11 7.31 68.28 6.81C70.28 6.35 72.31 6.18 74.35 6.32C75.25 6.38 76.14 6.49 77.03 6.62C77.29 6.66 77.55 6.78 77.79 6.91C78.76 7.46 78.94 8.18 78.82 9.16C78.68 10.31 78.12 11.32 77.63 12.34C76.4 14.88 75.13 17.4 73.86 19.93C73.81 20.04 73.64 20.16 73.51 20.17C71.27 20.29 69.02 20.4 66.71 20.52ZM65.4 19.42C66.55 19.42 67.65 19.43 68.74 19.41C68.82 19.41 68.96 19.27 68.97 19.18C69.13 18.19 69.27 17.19 69.4 16.19C69.44 15.85 69.57 15.61 69.85 15.37C70.11 15.14 70.31 14.8 70.44 14.47C70.68 13.81 70.25 13.24 69.56 13.22C68.71 13.19 68.07 13.57 67.59 14.25C67.33 14.6 67.15 15 67.36 15.43C67.47 15.66 67.4 15.8 67.3 15.99C66.68 17.11 66.05 18.24 65.4 19.42ZM49.33 15.96C49.34 16.24 49.34 16.47 49.37 16.69C49.42 17.13 49.69 17.4 50.1 17.5C51.35 17.81 52.51 17.6 53.55 16.81C53.7 16.69 53.82 16.53 53.91 16.36C54.17 15.91 54.06 15.57 53.57 15.43C52.98 15.26 52.37 15.15 51.78 15.01C50.65 14.76 49.5 14.57 48.39 14.24C47.12 13.87 46.58 12.77 46.98 11.49C47.44 10 48.47 8.95 49.74 8.12C51.19 7.17 52.8 6.66 54.52 6.55C55.89 6.47 57.27 6.45 58.65 6.49C59.27 6.51 59.91 6.68 60.5 6.9C61.46 7.26 61.91 8.04 61.92 9.07C61.93 9.34 62 9.69 61.87 9.87C61.77 10.02 61.4 10 61.15 10.02C60.08 10.13 59.01 10.23 57.95 10.33C57.44 10.38 56.93 10.42 56.49 10.47C56.41 10.15 56.41 9.81 56.25 9.62C56.07 9.41 55.75 9.26 55.46 9.21C54.69 9.08 53.91 9.11 53.21 9.53C52.94 9.7 52.69 9.95 52.51 10.21C52.26 10.57 52.38 10.9 52.8 11.01C53.38 11.17 53.97 11.26 54.56 11.36C55.71 11.58 56.88 11.73 58.01 12.01C58.81 12.2 59.47 12.67 59.7 13.54C59.87 14.18 59.75 14.79 59.49 15.37C58.85 16.79 57.76 17.81 56.48 18.63C54.94 19.61 53.23 20.12 51.42 20.33C50.01 20.48 48.6 20.53 47.19 20.37C46.44 20.29 45.68 20.14 44.97 19.89C43.82 19.5 43.24 18.38 43.47 17.18C43.59 16.53 43.59 16.51 44.22 16.44C45.36 16.31 46.49 16.22 47.63 16.12C48.19 16.07 48.76 16.02 49.33 15.96Z" />
		</g>
	</g>
</svg>