<svg xmlns="http://www.w3.org/2000/svg" viewBox="0 0 126 26" width="126" height="26">
	<style>
		tspan { white-space:pre }
		.shp0 { fill: #171717 } 
	</style>
	<g id="02">
		<g id="logos">
			<path id="neteller" class="shp0" d="M103.42 18.84C104.11 15.02 104.79 11.27 105.47 7.52C105.76 5.93 106.05 4.35 106.31 2.76C106.4 2.21 106.61 1.99 107.19 2.01C110.45 2.09 113.71 2.08 116.97 2.2C118.7 2.26 120.36 2.76 121.79 3.78C123.76 5.17 124.46 7.78 123.74 10.52C123 13.34 121.05 14.7 118.26 15.24C119.31 18.13 120.34 20.98 121.43 23.98C120.33 23.98 119.37 23.98 118.41 23.98C117.3 23.97 116.19 23.93 115.09 23.98C114.5 24.01 114.26 23.8 114.1 23.23C113.26 20.21 112.38 17.2 111.5 14.18C111.47 14.06 111.4 13.95 111.28 13.66C110.73 16.81 110.19 19.79 109.67 22.77C109.46 23.98 109.48 23.98 108.31 23.98C87.26 23.98 66.2 23.98 45.15 23.98C44.73 23.98 44.32 23.98 43.75 23.98C44.76 18.32 45.76 12.76 46.78 7.09C45.6 7.09 44.48 7.07 43.36 7.11C43.21 7.12 42.96 7.43 42.93 7.63C42.04 12.44 41.17 17.25 40.33 22.07C39.99 23.97 40.02 23.98 38.11 23.98C30.72 23.98 23.32 23.97 15.93 24C15.2 24 14.88 23.78 14.65 23.07C13.35 19.09 12 15.13 10.67 11.17C10.61 11 10.55 10.83 10.42 10.48C9.92 13.35 9.45 16.04 8.98 18.73C8.71 20.31 8.45 21.9 8.15 23.49C8.11 23.67 7.87 23.95 7.72 23.95C5.52 23.98 3.32 23.97 1 23.97C1.2 22.86 1.38 21.86 1.56 20.87C2.65 14.82 3.74 8.76 4.81 2.71C4.89 2.22 5.07 2.01 5.57 2.01C7.62 2.03 9.68 2.03 11.73 2.01C12.18 2 12.38 2.18 12.53 2.59C13.69 5.9 14.87 9.21 16.05 12.52C16.34 13.33 16.63 14.13 17 15.17C17.21 14.05 17.39 13.12 17.55 12.19C18.11 9.04 18.67 5.9 19.19 2.74C19.3 2.1 19.63 2.01 20.17 2.01C24.46 2.03 28.75 2.02 33.04 2.02C42.09 2.02 51.14 2.02 60.2 2.02C60.53 2.02 60.87 2.02 61.32 2.02C61.01 3.76 60.72 5.39 60.41 7.06C58.19 7.06 56.01 7.06 53.73 7.06C53.52 8.3 53.31 9.5 53.08 10.82C55.24 10.82 57.3 10.82 59.48 10.82C59.23 12.25 59.03 13.57 58.76 14.87C58.73 15.02 58.3 15.15 58.05 15.15C56.36 15.18 54.68 15.2 52.99 15.15C52.41 15.13 52.2 15.36 52.12 15.89C51.99 16.85 51.82 17.8 51.66 18.82C51.91 18.85 52.11 18.88 52.31 18.88C55.33 18.89 58.36 18.87 61.39 18.9C62.05 18.91 62.27 18.69 62.38 18.02C63.27 12.94 64.2 7.87 65.11 2.8C65.2 2.29 65.36 2 65.96 2.01C68.06 2.05 70.16 2.03 72.4 2.03C71.43 7.39 70.48 12.65 69.51 18.01C71.01 18.01 72.42 18.03 73.83 17.99C73.99 17.98 74.23 17.66 74.27 17.46C74.76 14.79 75.23 12.12 75.71 9.45C76.12 7.15 76.53 4.84 76.97 2.55C77.01 2.35 77.28 2.05 77.45 2.05C79.66 2.02 81.86 2.03 84.19 2.03C83.23 7.38 82.28 12.62 81.31 17.94C82.9 17.94 84.46 17.94 86.11 17.94C87.06 12.68 88.01 7.4 88.97 2.08C93.48 2.08 97.94 2.08 102.51 2.08C102.29 3.32 102.1 4.53 101.87 5.73C101.62 7.09 101.61 7.09 100.28 7.09C98.75 7.09 97.22 7.11 95.7 7.08C95.18 7.07 94.94 7.22 94.87 7.76C94.74 8.72 94.56 9.66 94.39 10.75C96.53 10.75 98.59 10.75 100.74 10.75C100.48 12.29 100.25 13.68 100 15.15C97.84 15.15 95.72 15.15 93.55 15.15C93.34 16.41 93.13 17.59 92.92 18.84C96.44 18.84 99.89 18.84 103.42 18.84ZM31.42 10.76C31.14 12.33 30.9 13.72 30.65 15.18C28.38 15.18 26.19 15.18 23.97 15.18C23.75 16.44 23.54 17.61 23.33 18.78C23.52 18.84 23.59 18.88 23.66 18.88C26.87 18.89 30.08 18.9 33.28 18.86C33.51 18.85 33.9 18.45 33.95 18.19C34.51 15.26 35.02 12.33 35.54 9.39C35.67 8.65 35.78 7.89 35.89 7.15C32.35 7.15 28.89 7.15 25.42 7.15C25.23 8.35 25.05 9.5 24.84 10.76C27.1 10.76 29.19 10.76 31.42 10.76ZM111.56 12.2C112.95 12.39 114.2 12.33 115.39 11.84C116.6 11.33 117.28 9.91 116.99 8.59C116.71 7.37 115.87 6.76 114.26 6.63C112.63 6.5 112.61 6.5 112.3 8.09C112.03 9.43 111.82 10.77 111.56 12.2Z" />
		</g>
	</g>
</svg>