<svg xmlns="http://www.w3.org/2000/svg" viewBox="0 0 127 35" width="127" height="35">
	<style>
		tspan { white-space:pre }
		.shp0 { fill: #171717 } 
	</style>
	<g id="02">
		<g id="logos">
			<path id="PM" class="shp0" d="M78.87 16.44C78.4 17.51 77.93 18.57 77.48 19.64C76.51 21.99 75.56 24.34 74.6 26.69C74.47 27.02 74.34 27.28 73.89 27.28C73.43 27.27 73.32 26.99 73.18 26.68C71.83 23.52 70.47 20.36 69.12 17.2C69.03 17.01 68.92 16.83 68.7 16.66C68.68 16.83 68.64 17.01 68.64 17.18C68.65 19.6 68.67 22.03 68.69 24.45C68.69 24.73 68.74 25.01 68.76 25.29C68.78 25.95 69.17 26.17 69.76 26.17C69.87 26.17 70 26.14 70.07 26.19C70.22 26.29 70.43 26.44 70.44 26.58C70.44 26.71 70.22 26.97 70.1 26.98C68.66 27 67.21 27 65.77 26.98C65.65 26.97 65.47 26.71 65.46 26.55C65.44 26.44 65.63 26.26 65.77 26.19C65.89 26.13 66.06 26.18 66.21 26.17C66.71 26.16 67.01 25.91 67.05 25.4C67.1 24.71 67.19 24.03 67.19 23.34C67.18 20.17 67.17 16.99 67.13 13.81C67.12 13.05 66.85 12.85 66.1 12.82C66.01 12.82 65.9 12.86 65.85 12.81C65.7 12.69 65.5 12.55 65.46 12.38C65.44 12.29 65.69 12.02 65.82 12.02C66.94 11.99 68.07 11.97 69.2 12.02C69.4 12.03 69.67 12.34 69.77 12.58C70.83 15 71.86 17.45 72.9 19.88C73.34 20.89 73.79 21.89 74.31 23.06C74.56 22.56 74.75 22.22 74.9 21.86C76.2 18.75 77.51 15.63 78.8 12.52C78.95 12.17 79.14 11.97 79.56 11.99C80.58 12.02 81.6 11.99 82.62 12C82.91 12 83.25 11.95 83.24 12.42C83.24 12.85 82.94 12.81 82.66 12.82C81.66 12.87 81.6 12.92 81.5 13.93C81.47 14.23 81.45 14.53 81.45 14.83C81.48 18.26 81.49 21.7 81.54 25.13C81.55 25.96 81.79 26.14 82.58 26.18C82.89 26.19 83.27 26.1 83.24 26.62C83.22 27.1 82.85 26.99 82.58 27C81.07 27 79.56 27 78.05 27C77.79 27 77.48 27.07 77.46 26.62C77.44 26.15 77.73 26.18 78.04 26.17C78.81 26.15 79.02 25.96 79.03 25.23C79.06 22.46 79.06 19.69 79.07 16.92C79.08 16.77 79.02 16.61 79 16.46C78.95 16.45 78.91 16.45 78.87 16.44ZM118.8 2C122.17 2.02 124.99 4.79 124.92 8.09C124.86 11.22 122.49 13.99 118.75 14.07C115.4 14.14 112.58 11.31 112.6 8.02C112.61 4.71 115.42 1.98 118.8 2ZM120.67 8.65C120.6 8.65 120.53 8.66 120.47 8.66C120.11 7.86 119.75 7.06 119.41 6.25C119.1 5.54 118.88 5.44 118.08 5.73C118.74 6.51 118.75 9.2 118.08 9.97C118.51 9.97 118.91 9.97 119.48 9.97C118.83 9.52 118.65 8.17 119.04 7.17C119.42 8.04 119.77 8.83 120.12 9.61C120.19 9.75 120.32 9.87 120.41 10C120.52 9.86 120.67 9.74 120.74 9.59C121.1 8.77 121.44 7.95 121.78 7.13C121.86 7.15 121.93 7.17 122.01 7.19C121.8 8.09 122.41 9.1 121.52 9.98C122.04 9.98 122.55 9.98 123.2 9.98C122.41 9.4 122.4 6.57 123.05 5.7C122.11 5.47 122.03 5.51 121.68 6.33C121.34 7.1 121.01 7.87 120.67 8.65ZM115.81 7.95C116.21 7.97 116.47 8.01 116.73 7.99C117.4 7.92 117.81 7.41 117.85 6.68C117.89 6.08 117.61 5.69 117.03 5.63C116.43 5.56 115.81 5.61 115.12 5.61C115.12 6.72 115.12 7.75 115.12 8.78C115.11 9.22 115.25 9.72 114.67 10C115.19 10 115.71 10 116.36 10C115.45 9.39 115.88 8.66 115.81 7.95ZM4.57 20.23C5.15 20.23 5.73 20.23 6.43 20.23C6.43 21.39 6.43 22.45 6.43 23.52C6.44 23.97 6.46 24.42 6.49 24.87C6.55 25.75 6.72 25.88 7.59 25.93C7.84 25.94 8.23 26.05 8.31 26.23C8.53 26.7 8.3 26.99 7.76 27C6.08 27.01 4.4 26.99 2.72 27C2.33 27.01 2.15 26.89 2.15 26.45C2.15 26 2.35 25.92 2.73 25.91C3.87 25.88 3.98 25.79 4.02 24.62C4.06 23.31 4.04 22 4.07 20.69C4.07 20.41 4.16 20.14 4.22 19.8C3.52 19.67 2.76 19.54 2.01 19.4C2 19.33 2 19.27 2 19.2C3.51 19.12 5.01 19.02 6.52 18.95C7.07 18.92 7.62 18.93 8.18 18.96C10.1 19.07 11.28 17.54 11.05 15.52C10.8 13.3 8.61 12.65 6.77 13.37C6.62 13.44 6.5 13.78 6.49 14C6.43 15.33 6.42 16.66 6.39 17.99C6.38 18.22 6.39 18.45 6.39 18.74C5.59 18.74 4.88 18.74 4.1 18.74C4.08 18.53 4.06 18.3 4.06 18.08C4.05 16.83 4.08 15.59 4.03 14.34C3.99 13.34 3.73 13.11 2.75 13.08C2.38 13.08 2.15 13.02 2.15 12.56C2.14 12.08 2.36 11.99 2.77 11.99C5.17 12 7.57 11.98 9.97 12C11.66 12.02 13.05 12.89 13.46 14.12C14.14 16.15 13.14 18.62 11.19 19.49C10.48 19.81 9.65 19.96 8.87 20.02C7.66 20.1 6.45 20.04 5.24 20.04C5.01 20.04 4.79 20.04 4.57 20.04C4.57 20.1 4.57 20.17 4.57 20.23ZM97.86 17.9C98.27 17.55 98.55 17.25 98.87 17.03C100.01 16.26 102.33 16.57 103.25 17.6C103.87 18.3 104.01 19.16 104.01 20.05C104.03 21.73 104.01 23.4 104.02 25.07C104.03 25.99 104.12 26.06 105.02 26.19C105.19 26.22 105.34 26.47 105.5 26.62C105.34 26.74 105.18 26.98 105.02 26.98C104.05 27.02 103.07 26.99 102.09 27C101.62 27.01 101.69 26.71 101.69 26.39C101.72 24.33 101.77 22.28 101.74 20.22C101.73 19.11 100.82 18.22 99.87 18.24C98.91 18.26 97.9 19.21 97.87 20.21C97.83 21.95 97.85 23.69 97.85 25.42C97.85 25.93 98.09 26.17 98.59 26.17C98.74 26.17 98.92 26.13 99.03 26.19C99.18 26.28 99.38 26.45 99.38 26.59C99.38 26.72 99.16 26.97 99.03 26.98C97.48 27 95.93 27 94.38 26.98C94.27 26.97 94.07 26.7 94.08 26.56C94.08 26.43 94.29 26.21 94.44 26.19C95.56 26.02 95.59 26.01 95.6 24.84C95.61 22.95 95.61 21.06 95.61 19.17C95.6 18.3 95.54 18.26 94.7 18.23C94.44 18.22 94.08 18.37 94.04 17.87C94.01 17.4 94.33 17.43 94.61 17.36C95.38 17.14 96.15 16.91 96.92 16.68C97.54 16.5 97.76 16.67 97.79 17.32C97.8 17.46 97.82 17.61 97.86 17.9ZM120.16 23.8C120.38 23.28 120.62 22.78 120.81 22.25C121.24 21.06 121.63 19.86 122.06 18.68C122.22 18.21 122.13 17.94 121.62 17.85C121.46 17.83 121.25 17.81 121.14 17.71C121.01 17.59 120.91 17.39 120.9 17.21C120.89 17.12 121.09 16.92 121.2 16.92C122.37 16.9 123.54 16.89 124.71 16.92C124.81 16.92 124.98 17.12 125 17.24C125.02 17.38 124.92 17.65 124.84 17.66C123.9 17.77 123.72 18.58 123.45 19.25C121.88 23.15 120.34 27.07 118.81 30.98C118.47 31.84 117.91 32.55 117.09 32.86C116.54 33.08 115.83 33 115.22 32.89C114.86 32.82 114.59 32.41 114.77 31.92C114.86 31.65 114.93 31.38 114.99 31.11C115.13 30.51 115.64 30.31 116.03 30.79C116.58 31.46 117.07 31.35 117.46 30.6C117.98 29.6 118.42 28.55 118.77 27.48C118.88 27.14 118.62 26.66 118.48 26.26C117.59 23.84 116.68 21.42 115.77 18.99C115.54 18.37 115.37 17.7 114.51 17.66C114.43 17.66 114.28 17.39 114.31 17.28C114.34 17.14 114.51 16.94 114.64 16.92C115.04 16.87 115.45 16.9 115.85 16.89C116.79 16.89 117.72 16.89 118.66 16.9C118.94 16.9 119.33 16.78 119.33 17.32C119.32 17.82 118.97 17.72 118.69 17.71C118.16 17.7 117.89 17.94 118.07 18.45C118.66 20.23 119.3 21.99 119.92 23.76C120 23.77 120.08 23.79 120.16 23.8ZM89.12 16.63C91.43 16.49 93.35 18.09 93.63 20.55C93.9 22.85 93.52 24.94 91.52 26.38C89.43 27.88 85.82 27.7 84.55 24.83C83.7 22.94 83.74 19.65 85.36 18.06C86.4 17.04 87.62 16.6 89.12 16.63ZM91.37 22.46C91.4 20.62 90.82 17.86 88.71 17.76C87.79 17.71 87.09 18.31 86.78 19.18C86 21.36 86.26 23.47 87.61 25.34C88.17 26.1 89.13 26.41 89.97 25.92C90.96 25.34 91.24 24.04 91.34 22.97C91.35 22.81 91.36 22.64 91.37 22.46ZM15.64 22.1C15.59 23.96 16.42 25.26 17.92 25.8C18.65 26.06 19.29 25.8 19.93 25.51C20.19 25.39 20.42 25.15 20.69 25.05C20.93 24.97 21.2 25 21.46 24.97C21.47 25.21 21.51 25.45 21.47 25.67C21.33 26.43 20.67 26.6 20.09 26.83C18.74 27.37 17.35 27.49 15.98 27C14.34 26.41 13.55 25.06 13.29 23.4C13.07 21.94 13.11 20.47 13.79 19.13C14.58 17.58 15.95 16.82 17.63 16.65C18.93 16.51 20.12 16.8 20.99 17.9C21.85 18.98 21.94 20.26 21.83 21.55C21.81 21.71 21.35 21.94 21.09 21.95C19.52 22.03 17.96 22.06 16.39 22.1C16.14 22.11 15.89 22.1 15.64 22.1ZM15.62 21.02C16.41 21.02 17.17 21.02 17.93 21.02C19.73 21.02 19.86 20.85 19.28 19.12C19.03 18.36 18.5 17.87 17.73 17.76C17.06 17.65 16.58 18.09 16.21 18.61C15.74 19.3 15.63 20.1 15.62 21.02ZM38.85 22.1C38.83 24 39.65 25.27 41.14 25.8C42.02 26.11 42.75 25.71 43.49 25.33C43.68 25.23 43.83 25.04 44.02 24.98C44.23 24.92 44.52 24.89 44.67 25C44.78 25.08 44.8 25.46 44.7 25.61C44.48 25.97 44.22 26.39 43.87 26.57C42.36 27.36 40.75 27.54 39.13 26.98C37.94 26.57 37.13 25.64 36.77 24.45C36.19 22.55 36.16 20.61 37.17 18.84C38.55 16.44 42.52 15.73 44.22 17.9C45.07 18.99 45.16 20.26 45.04 21.56C45.03 21.72 44.56 21.94 44.3 21.95C42.73 22.03 41.16 22.06 39.6 22.1C39.35 22.11 39.1 22.1 38.85 22.1ZM38.83 20.97C39.08 20.99 39.27 21.02 39.46 21.02C40.43 21.02 41.4 21.03 42.38 20.99C42.51 20.99 42.75 20.71 42.73 20.6C42.61 19.94 42.57 19.2 42.24 18.65C41.57 17.56 40.41 17.34 39.48 18.53C38.95 19.21 38.87 20.05 38.83 20.97ZM107.98 22.1C108.03 24.08 108.79 25.25 110.25 25.78C111.16 26.12 111.9 25.71 112.65 25.31C112.84 25.21 112.99 25.02 113.18 24.97C113.39 24.92 113.66 24.92 113.84 25.02C113.93 25.07 113.9 25.4 113.87 25.59C113.78 26.09 113.45 26.39 113 26.61C111.76 27.22 110.44 27.44 109.1 27.21C107.32 26.9 106.22 25.76 105.79 23.99C105.37 22.23 105.39 20.47 106.3 18.88C107.1 17.47 108.43 16.78 110.02 16.64C111.46 16.52 112.72 16.89 113.56 18.19C114.22 19.2 114.3 20.36 114.19 21.53C114.17 21.69 113.73 21.93 113.47 21.95C112.16 22.03 110.85 22.06 109.54 22.1C109.03 22.11 108.53 22.1 107.98 22.1ZM107.98 21.02C108.78 21.02 109.54 21.02 110.29 21.02C112.08 21.02 112.22 20.83 111.64 19.1C111.38 18.35 110.84 17.87 110.08 17.76C109.41 17.66 108.93 18.09 108.56 18.62C108.09 19.31 107.98 20.1 107.98 21.02ZM31.33 18.75C31 18.75 30.74 18.78 30.5 18.74C30.34 18.72 30.07 18.6 30.07 18.52C30.07 18.33 30.17 18.01 30.28 17.99C31.45 17.74 31.41 16.88 31.38 15.96C31.34 14.93 31.74 14.03 32.39 13.26C32.82 12.75 33.28 12.28 33.74 11.8C34.4 11.13 35.23 11.16 36.07 11.26C36.2 11.28 36.41 11.5 36.41 11.63C36.42 12.18 36.36 12.72 36.32 13.27C36.04 13.24 35.76 13.22 35.48 13.18C35.38 13.16 35.29 13.08 35.2 13.03C34.56 12.71 34.03 12.86 33.85 13.54C33.67 14.26 33.62 15.02 33.56 15.76C33.52 16.27 33.56 16.79 33.56 17.41C34.22 17.41 34.85 17.42 35.48 17.41C35.87 17.4 36.11 17.52 36.04 17.96C35.99 18.32 36.08 18.78 35.48 18.76C34.86 18.73 34.25 18.75 33.55 18.75C33.55 19.2 33.55 19.58 33.55 19.96C33.57 21.63 33.57 23.31 33.59 24.98C33.61 26.05 33.73 26.16 34.78 26.17C34.86 26.18 34.98 26.14 35.02 26.18C35.17 26.31 35.36 26.46 35.39 26.62C35.41 26.72 35.16 26.98 35.03 26.98C33.4 27.01 31.76 27.01 30.12 26.98C30 26.98 29.76 26.7 29.78 26.6C29.82 26.44 30.02 26.21 30.17 26.19C31.24 26.05 31.31 26.01 31.32 24.94C31.35 23.07 31.36 21.21 31.37 19.34C31.37 19.17 31.35 19 31.33 18.75ZM55.61 18.75C55.2 18.75 54.9 18.78 54.61 18.74C54.45 18.71 54.19 18.57 54.19 18.48C54.2 18.3 54.32 17.98 54.44 17.97C55.77 17.76 55.67 16.8 55.59 15.84C55.58 15.75 55.58 15.66 55.58 15.58C55.55 14.03 55.62 13.91 57.04 13.35C57.61 13.12 57.92 13.37 57.91 14C57.9 15.09 57.91 16.19 57.91 17.4C58.68 17.4 59.51 17.4 60.32 17.4C60.48 18.69 60.42 18.75 59.3 18.75C58.87 18.75 58.45 18.76 58.03 18.77C57.99 18.77 57.95 18.8 57.87 18.83C57.85 18.97 57.82 19.14 57.82 19.3C57.83 20.91 57.83 22.52 57.85 24.13C57.85 24.38 57.87 24.65 57.95 24.89C58.18 25.58 58.64 25.73 59.25 25.35C59.35 25.28 59.46 25.17 59.57 25.17C59.75 25.17 60 25.19 60.09 25.31C60.19 25.45 60.24 25.72 60.18 25.89C59.8 26.95 58.72 27.45 57.32 27.25C56.3 27.11 55.65 26.42 55.62 25.26C55.57 23.37 55.61 21.49 55.61 19.6C55.61 19.35 55.61 19.09 55.61 18.75ZM53.43 19.91C52.56 20.21 52.4 20.09 52.26 19.21C52.21 18.93 52.02 18.6 51.79 18.45C50.23 17.41 48.5 18.18 48.1 20.04C47.79 21.49 47.95 22.85 48.62 24.16C49.46 25.81 50.82 26.27 52.47 25.48C52.86 25.3 53.39 25.05 53.59 25.53C53.69 25.78 53.36 26.42 53.05 26.61C51.55 27.54 48.55 27.63 47.26 26.25C46.73 25.68 46.25 24.95 46.04 24.21C45.57 22.6 45.52 20.94 46.33 19.39C47.19 17.74 48.71 16.97 50.42 16.68C51.25 16.54 52.14 16.77 53 16.9C53.55 16.98 53.83 17.27 53.66 17.93C53.49 18.57 53.5 19.25 53.43 19.91ZM26.03 18.11C26.36 17.74 26.56 17.52 26.76 17.3C27.42 16.54 28.3 16.56 29.17 16.69C29.35 16.72 29.59 17.11 29.59 17.34C29.61 17.96 29.54 18.58 29.46 19.2C29.44 19.39 29.31 19.71 29.19 19.73C28.92 19.76 28.54 19.74 28.38 19.58C28.06 19.26 27.94 18.65 27.34 18.86C26.67 19.09 26.23 19.63 26.2 20.35C26.14 22.02 26.13 23.69 26.12 25.36C26.12 25.92 26.49 26.13 26.99 26.17C27.18 26.19 27.39 26.13 27.56 26.2C27.71 26.26 27.91 26.46 27.91 26.59C27.91 26.73 27.69 26.96 27.55 26.98C27.02 27.02 26.49 27 25.96 27C24.89 27 23.83 26.98 22.77 27.01C22.23 27.02 22.01 26.84 22.19 26.29C22.23 26.27 22.26 26.23 22.3 26.22C23.9 25.92 23.78 26.16 23.84 24.49C23.9 22.75 23.88 21.01 23.82 19.28C23.78 18.27 23.7 18.27 22.7 18.23C22.54 18.23 22.37 18.2 22.18 18.17C22.18 17.93 22.18 17.73 22.18 17.55C23.21 17.25 24.22 16.93 25.23 16.66C25.83 16.51 25.97 16.66 25.98 17.3C25.99 17.51 26.01 17.71 26.03 18.11ZM115.86 7.66C115.65 6.44 115.77 5.97 116.31 5.93C116.8 5.89 117.23 6.32 117.23 6.83C117.22 7.46 116.82 7.72 115.86 7.66Z" />
		</g>
	</g>
</svg>