<svg xmlns="http://www.w3.org/2000/svg" viewBox="0 0 109 25" width="109" height="25">
	<style>
		tspan { white-space:pre }
		.shp0 { fill: #171717 } 
	</style>
	<g id="02">
		<g id="logos">
			<path id="Shape 694" class="shp0" d="M69.44 22.65C70.16 21.2 70.77 19.95 71.39 18.71C74.03 13.45 76.67 8.2 79.28 2.94C79.52 2.47 79.82 2.37 80.32 2.37C82.11 2.38 83.9 2.4 85.69 2.36C86.36 2.35 86.58 2.57 86.63 3.14C86.93 7.06 87.26 10.98 87.57 14.9C87.76 17.19 87.92 19.49 88.15 21.78C88.22 22.52 87.92 22.72 87.14 22.69C85.99 22.65 84.83 22.67 83.68 22.69C83.1 22.71 82.85 22.5 82.85 22C82.84 21.19 82.78 20.39 82.78 19.59C82.78 19.12 82.6 18.91 82.04 18.92C80.5 18.94 78.95 18.9 77.41 18.95C77.11 18.96 76.7 19.24 76.57 19.48C76.13 20.3 75.81 21.17 75.4 22C75.28 22.25 75.02 22.62 74.8 22.63C73.09 22.68 71.38 22.65 69.44 22.65ZM82.56 14.41C82.46 11.91 82.36 9.48 82.27 7.05C82.22 7.04 82.17 7.03 82.13 7.03C81.05 9.46 79.96 11.89 78.84 14.41C80.16 14.41 81.27 14.41 82.56 14.41ZM58.06 22.68C57.45 22.68 56.85 22.66 56.24 22.69C55.56 22.72 55.34 22.53 55.47 21.89C56.13 18.9 56.73 15.9 57.35 12.9C58.02 9.67 58.71 6.44 59.34 3.2C59.47 2.57 59.73 2.35 60.45 2.36C61.99 2.4 63.54 2.36 65.09 2.38C69.72 2.43 72.37 5.01 72.01 9.1C71.61 13.49 68.65 15.87 63.32 15.98C62.34 16 62.03 16.3 61.9 17.09C61.63 18.71 61.25 20.3 60.96 21.91C60.85 22.51 60.56 22.74 59.88 22.69C59.27 22.65 58.67 22.68 58.06 22.68ZM63.2 11.33C65.5 11.59 67.15 9.83 66.47 8.02C66.18 7.24 65.51 6.83 64.61 6.92C64.39 6.94 64.05 7.12 64.01 7.27C63.71 8.6 63.47 9.94 63.2 11.33ZM53.38 17.16C53.38 18.67 53.39 20.05 53.36 21.42C53.35 21.58 53.12 21.8 52.93 21.88C50.38 22.9 47.72 23.32 44.97 22.68C42.39 22.08 40.89 20.43 40.36 18.24C39.27 13.83 39.99 9.6 42.79 5.78C45.44 2.17 50.53 1.03 55.09 2.87C57.23 3.73 57.23 3.73 56.35 5.62C56.05 6.26 55.71 6.89 55.44 7.54C55.22 8.06 54.95 8.2 54.37 7.87C53.79 7.53 53.16 7.24 52.51 7.03C50.12 6.27 48.47 6.74 47.17 8.67C45.53 11.08 45.11 13.73 45.7 16.47C45.98 17.79 47.03 18.48 48.53 18.32C49.84 18.18 51.11 17.79 52.39 17.49C52.66 17.43 52.93 17.31 53.38 17.16ZM15.23 7.74C14.45 7.44 13.8 7.16 13.13 6.94C12.62 6.78 12.08 6.68 11.54 6.61C10.85 6.51 10.17 6.61 9.77 7.17C9.34 7.77 9.33 8.46 9.81 8.99C10.58 9.83 11.45 10.61 12.35 11.37C15.45 13.96 15.77 18.54 12.87 21.12C12.06 21.84 10.88 22.36 9.76 22.65C7.39 23.27 5.03 23.06 2.78 22.07C2.24 21.83 1.98 21.52 2 20.95C2.05 19.61 2.01 18.28 2.01 16.78C2.47 16.96 2.77 17.11 3.09 17.21C4.33 17.6 5.57 18.04 6.84 18.35C7.71 18.57 8.55 18.35 9.08 17.64C9.52 17.04 9.36 16.2 8.64 15.5C7.81 14.69 6.89 13.95 6.07 13.12C3.7 10.74 3.36 7.36 5.21 4.78C6.52 2.95 8.53 2.17 10.88 2.07C12.82 1.98 14.66 2.39 16.39 3.2C16.86 3.42 17.07 3.65 16.83 4.15C16.28 5.32 15.77 6.51 15.23 7.74ZM91.07 2.38C92.86 2.38 94.49 2.36 96.12 2.41C96.33 2.41 96.65 2.79 96.7 3.03C97.03 4.87 97.32 6.73 97.62 8.58C97.66 8.82 97.72 9.05 97.84 9.55C98.43 8.54 98.9 7.74 99.36 6.93C100.11 5.62 100.86 4.31 101.58 2.98C101.82 2.54 102.13 2.36 102.7 2.36C104.38 2.39 106.07 2.38 108 2.38C107.3 3.45 106.71 4.37 106.1 5.27C104.18 8.15 102.21 11.01 100.33 13.9C99.89 14.58 99.61 15.37 99.43 16.14C98.98 18.02 98.61 19.92 98.26 21.82C98.14 22.47 97.85 22.74 97.07 22.7C95.95 22.65 94.83 22.69 93.71 22.68C92.6 22.68 92.59 22.66 92.79 21.67C93.17 19.75 93.64 17.83 93.93 15.9C94.06 15.03 94 14.09 93.79 13.22C93 9.96 92.1 6.71 91.25 3.46C91.17 3.15 91.14 2.83 91.07 2.38ZM32.66 2.55C32.37 3.88 32.11 5.22 31.77 6.54C31.72 6.72 31.28 6.92 31.01 6.93C30.07 6.98 29.13 6.98 28.19 6.95C27.6 6.93 27.36 7.11 27.25 7.65C26.33 12.28 25.37 16.91 24.43 21.53C24.2 22.69 24.22 22.7 22.89 22.69C21.86 22.69 20.83 22.66 19.8 22.7C19.01 22.73 18.72 22.56 18.88 21.79C19.62 18.35 20.3 14.9 21 11.46C21.26 10.19 21.5 8.93 21.77 7.67C21.89 7.14 21.73 6.92 21.1 6.94C20.25 6.97 19.4 6.93 18.56 6.96C17.88 6.98 17.61 6.79 17.76 6.16C18.02 5.09 18.2 4 18.47 2.93C18.53 2.72 18.87 2.41 19.08 2.41C23.5 2.38 27.92 2.4 32.34 2.41C32.39 2.41 32.44 2.45 32.66 2.55ZM32.91 22.69C32.3 22.69 31.69 22.66 31.09 22.7C30.31 22.74 30.17 22.45 30.31 21.82C31.6 15.65 32.89 9.47 34.14 3.29C34.29 2.56 34.62 2.32 35.45 2.36C36.65 2.42 37.87 2.4 39.08 2.37C39.74 2.35 39.92 2.55 39.8 3.13C38.76 7.93 37.75 12.74 36.74 17.55C36.43 19.02 36.11 20.49 35.84 21.97C35.73 22.52 35.46 22.75 34.81 22.7C34.18 22.65 33.54 22.69 32.91 22.69Z" />
		</g>
	</g>
</svg>