<svg xmlns="http://www.w3.org/2000/svg" viewBox="0 0 124 40" width="124" height="40">
	<style>
		tspan { white-space:pre }
		.shp0 { fill: #171717 } 
		.shp1 { fill: #000000 } 
	</style>
	<g id="02">
		<g id="logos">
			<g id="Visa MC">
				<path id="Visa" class="shp0" d="M60.03 10.49C60.72 10.49 61.41 10.49 62.09 10.5C62.5 10.5 62.62 10.59 62.7 10.97C63.05 12.64 63.4 14.31 63.75 15.98C64.05 17.38 64.36 18.77 64.65 20.16C64.94 21.49 65.21 22.83 65.49 24.16C65.79 25.59 66.1 27.01 66.4 28.44C66.52 29 66.63 29.57 66.75 30.14C66.79 30.34 66.71 30.43 66.52 30.44C66.43 30.45 66.33 30.46 66.23 30.46C65.01 30.46 63.79 30.47 62.57 30.46C62.01 30.46 61.99 30.43 61.89 29.91C61.76 29.27 61.62 28.63 61.47 27.99C61.38 27.59 61.28 27.51 60.87 27.51C58.96 27.51 57.06 27.52 55.15 27.51C54.77 27.51 54.55 27.61 54.43 27.99C54.22 28.65 53.96 29.28 53.73 29.93C53.55 30.41 53.48 30.47 52.97 30.47C51.57 30.47 50.16 30.47 48.76 30.46C48.12 30.46 48.08 30.39 48.32 29.82C49.59 26.83 50.85 23.85 52.12 20.86C53.36 17.93 54.61 15 55.86 12.07C56.3 11.03 57.08 10.5 58.24 10.49C58.84 10.49 59.44 10.49 60.03 10.49ZM58.91 16.14C58.88 16.14 58.86 16.14 58.83 16.14C58.77 16.27 58.7 16.39 58.65 16.53C58.08 18.07 57.52 19.61 56.95 21.15C56.73 21.76 56.5 22.36 56.29 22.97C56.22 23.17 56.19 23.4 56.51 23.4C57.72 23.41 58.93 23.41 60.14 23.41C60.34 23.41 60.44 23.29 60.41 23.09C60.37 22.83 60.33 22.56 60.27 22.3C60.03 21.19 59.79 20.08 59.55 18.97C59.4 18.25 59.26 17.52 59.11 16.8C59.06 16.58 58.97 16.36 58.91 16.14ZM15.58 23.91C15.7 23.74 15.78 23.66 15.82 23.56C16.88 20.93 17.93 18.3 18.98 15.66C19.63 14.05 20.29 12.44 20.94 10.82C21.02 10.6 21.17 10.5 21.41 10.5C22.96 10.5 24.52 10.49 26.08 10.5C26.42 10.5 26.5 10.62 26.37 10.92C25.66 12.61 24.94 14.29 24.23 15.97C23.46 17.78 22.7 19.59 21.93 21.4C21.19 23.14 20.44 24.88 19.7 26.62C19.2 27.78 18.7 28.93 18.22 30.09C18.11 30.36 17.95 30.46 17.68 30.46C16.09 30.46 14.5 30.46 12.91 30.46C12.66 30.46 12.5 30.37 12.44 30.12C12.2 29.19 11.95 28.27 11.7 27.35C11.33 25.94 10.96 24.53 10.59 23.12C10.31 22.04 10.03 20.96 9.75 19.88C9.37 18.45 8.99 17.02 8.61 15.59C8.47 15.06 8.33 14.53 8.18 14.01C8.02 13.46 7.65 13.08 7.15 12.81C6.07 12.23 4.9 11.84 3.71 11.52C3.23 11.38 2.74 11.27 2.27 11.13C2.16 11.09 1.98 10.93 2 10.88C2.05 10.74 2.17 10.61 2.29 10.51C2.36 10.46 2.48 10.49 2.58 10.49C5.36 10.49 8.14 10.49 10.91 10.49C12.14 10.5 13.1 11.25 13.34 12.44C13.68 14.15 14 15.87 14.33 17.58C14.62 19.1 14.93 20.61 15.22 22.13C15.31 22.59 15.39 23.05 15.47 23.52C15.49 23.62 15.53 23.71 15.58 23.91ZM39.01 30.82C37.3 30.75 35.49 30.53 33.75 29.9C33.51 29.81 33.36 29.69 33.43 29.4C33.69 28.19 33.96 26.97 34.22 25.76C34.28 25.46 34.43 25.42 34.69 25.55C36.13 26.24 37.65 26.6 39.26 26.62C40.21 26.63 41.15 26.55 41.99 26.02C42.98 25.38 43.12 24.25 42.22 23.5C41.66 23.02 40.99 22.65 40.33 22.31C39.09 21.67 37.86 21.03 36.88 20.01C35.96 19.06 35.43 17.93 35.48 16.62C35.54 15.1 36.12 13.76 37.21 12.66C38.31 11.55 39.67 10.9 41.17 10.51C42.29 10.22 43.44 10.09 44.6 10.12C46.05 10.15 47.47 10.42 48.85 10.87C49.14 10.96 49.24 11.14 49.18 11.41C48.97 12.38 48.75 13.35 48.54 14.33C48.5 14.5 48.46 14.66 48.42 14.83C48.36 15.13 48.26 15.18 47.96 15.09C47.28 14.88 46.6 14.62 45.9 14.49C44.68 14.26 43.45 14.16 42.26 14.6C41.91 14.73 41.58 14.95 41.31 15.21C40.82 15.68 40.8 16.43 41.31 16.88C41.81 17.31 42.37 17.7 42.95 18.02C44.07 18.65 45.23 19.19 46.25 19.99C48.09 21.44 48.63 23.24 48.08 25.5C47.52 27.83 45.9 29.21 43.71 30.05C42.24 30.61 40.7 30.8 39.01 30.82ZM27.14 30.46C26.42 30.46 25.7 30.47 24.98 30.46C24.55 30.45 24.51 30.4 24.6 29.99C25.02 28.02 25.44 26.06 25.86 24.1C26.24 22.32 26.63 20.54 27.02 18.76C27.41 16.94 27.8 15.11 28.2 13.29C28.38 12.47 28.58 11.66 28.75 10.84C28.8 10.62 28.91 10.5 29.15 10.5C30.64 10.5 32.13 10.5 33.62 10.5C33.92 10.5 34.01 10.65 33.95 10.91C33.78 11.73 33.61 12.55 33.43 13.37C33.2 14.48 32.96 15.59 32.71 16.7C32.49 17.74 32.25 18.77 32.02 19.81C31.87 20.49 31.73 21.17 31.58 21.85C31.35 22.93 31.12 24.01 30.89 25.09C30.65 26.17 30.42 27.25 30.19 28.33C30.05 28.95 29.91 29.56 29.78 30.18C29.73 30.43 29.53 30.46 29.33 30.46C28.6 30.46 27.87 30.46 27.14 30.46C27.14 30.46 27.14 30.46 27.14 30.46Z" />
				<path id="Ellipse 687" class="shp1" d="M108.4 30.4C105.24 30.4 102.32 29.37 99.95 27.64C103.21 24.95 105.31 20.86 105.31 16.27C105.31 11.51 103.07 7.29 99.61 4.61C102.04 2.73 105.09 1.6 108.4 1.6C116.35 1.6 122.8 8.05 122.8 16C122.8 23.95 116.35 30.4 108.4 30.4ZM98.8 27.94C95.33 25.26 93.09 21.03 93.09 16.27C93.09 11.51 95.33 7.28 98.8 4.6C102.27 7.28 104.51 11.51 104.51 16.27C104.51 21.03 102.27 25.26 98.8 27.94ZM97.65 27.64C95.28 29.37 92.36 30.4 89.2 30.4C81.25 30.4 74.8 23.95 74.8 16C74.8 8.05 81.25 1.6 89.2 1.6C92.51 1.6 95.55 2.73 97.99 4.61C94.53 7.29 92.29 11.51 92.29 16.27C92.29 20.86 94.39 24.95 97.65 27.64ZM78.93 34.74C78.94 34.75 78.95 34.76 78.96 34.77C79.27 34.35 79.67 34.2 80.16 34.23C80.64 34.26 81.02 34.48 81.29 34.91C81.31 34.89 81.33 34.88 81.35 34.86C81.8 34.22 82.43 34.11 83.11 34.29C83.72 34.45 84.07 34.92 84.1 35.56C84.15 36.46 84.12 37.36 84.12 38.28C83.84 38.28 83.58 38.28 83.3 38.28C83.3 38.21 83.3 38.14 83.3 38.07C83.3 37.42 83.3 36.77 83.3 36.12C83.3 36.02 83.3 35.92 83.29 35.82C83.21 35.29 82.94 35.03 82.47 35.03C81.97 35.03 81.62 35.32 81.55 35.83C81.53 36 81.53 36.17 81.53 36.34C81.52 36.98 81.53 37.62 81.53 38.27C81.25 38.27 80.99 38.27 80.7 38.27C80.7 38.2 80.7 38.13 80.7 38.06C80.7 37.42 80.7 36.79 80.7 36.15C80.7 36.03 80.7 35.9 80.68 35.77C80.59 35.25 80.3 35 79.8 35.03C79.33 35.05 78.97 35.39 78.96 35.89C78.94 36.61 78.95 37.32 78.94 38.04C78.94 38.12 78.94 38.19 78.94 38.27C78.66 38.27 78.4 38.27 78.13 38.27C78.13 36.95 78.13 35.65 78.13 34.33C78.39 34.33 78.65 34.33 78.93 34.33C78.93 34.47 78.93 34.6 78.93 34.74ZM85.95 34.41C86.5 34.13 87.38 34.09 87.96 34.79C87.96 34.61 87.96 34.47 87.96 34.33C88.24 34.33 88.5 34.33 88.77 34.33C88.77 35.64 88.77 36.95 88.77 38.27C88.51 38.27 88.25 38.27 87.97 38.27C87.97 38.14 87.97 38 87.97 37.87C87.94 37.86 87.92 37.85 87.92 37.86C87.29 38.68 85.85 38.53 85.21 37.54C84.52 36.48 84.88 34.94 85.95 34.41ZM86.12 37.31C86.5 37.63 86.93 37.66 87.36 37.46C87.82 37.23 87.99 36.81 88 36.38C88 35.9 87.88 35.56 87.59 35.3C87.12 34.88 86.38 34.95 85.98 35.44C85.56 35.97 85.63 36.89 86.12 37.31ZM90.82 37.57C91.11 37.62 91.41 37.58 91.71 37.56C91.79 37.55 91.87 37.5 91.94 37.45C92.18 37.27 92.17 36.95 91.88 36.85C91.62 36.75 91.32 36.72 91.04 36.65C90.81 36.59 90.56 36.54 90.34 36.44C89.49 36.04 89.62 34.92 90.2 34.54C90.41 34.41 90.66 34.3 90.9 34.26C91.52 34.16 92.14 34.24 92.71 34.54C92.74 34.56 92.77 34.58 92.8 34.6C92.82 34.61 92.83 34.62 92.86 34.64C92.74 34.87 92.63 35.09 92.51 35.32C92.11 35.1 91.7 34.97 91.26 34.99C91.11 35 90.96 35.04 90.83 35.1C90.67 35.16 90.59 35.3 90.6 35.47C90.61 35.64 90.73 35.73 90.87 35.76C91.17 35.83 91.48 35.87 91.79 35.94C91.96 35.97 92.13 36.02 92.29 36.09C92.64 36.25 92.89 36.5 92.94 36.92C93 37.39 92.84 37.78 92.46 38.05C92.11 38.3 91.71 38.38 91.3 38.38C90.69 38.39 90.12 38.26 89.59 37.87C89.72 37.64 89.84 37.44 89.95 37.26C90.25 37.37 90.52 37.52 90.82 37.57ZM94.28 33.12C94.56 33.12 94.83 33.12 95.11 33.12C95.11 33.51 95.11 33.9 95.11 34.31C95.56 34.31 96 34.31 96.45 34.31C96.45 34.58 96.45 34.83 96.45 35.1C96.01 35.1 95.57 35.1 95.11 35.1C95.11 35.28 95.11 35.45 95.11 35.61C95.11 36.04 95.11 36.48 95.11 36.91C95.12 37.44 95.39 37.66 95.88 37.55C96.05 37.51 96.21 37.44 96.4 37.38C96.43 37.48 96.47 37.59 96.51 37.71C96.55 37.83 96.59 37.95 96.63 38.08C96.26 38.32 95.85 38.42 95.43 38.38C94.64 38.29 94.31 37.89 94.29 36.99C94.28 36.44 94.29 35.88 94.28 35.33C94.28 35.26 94.28 35.19 94.28 35.1C94.02 35.1 93.78 35.1 93.53 35.1C93.53 34.84 93.53 34.59 93.53 34.32C93.78 34.32 94.02 34.32 94.28 34.32C94.28 33.91 94.28 33.52 94.28 33.12ZM98.19 34.42C99.26 33.89 100.66 34.38 100.82 36.01C100.84 36.21 100.82 36.41 100.82 36.63C99.88 36.63 98.96 36.63 98.03 36.63C98.05 37.15 98.47 37.57 99 37.6C99.45 37.64 99.86 37.49 100.25 37.2C100.38 37.41 100.51 37.61 100.65 37.83C100.35 38.09 100.02 38.25 99.65 38.33C99.19 38.42 98.73 38.41 98.29 38.22C97.57 37.92 97.15 37.2 97.16 36.29C97.17 35.47 97.45 34.79 98.19 34.42ZM99.98 35.95C99.87 35.26 99.47 34.92 98.88 34.99C98.41 35.05 98.02 35.49 98.05 35.95C98.69 35.95 99.33 35.95 99.98 35.95ZM102.51 34.79C102.72 34.51 102.93 34.31 103.23 34.25C103.52 34.2 103.8 34.21 104.09 34.33C104.01 34.6 103.93 34.86 103.85 35.12C103.73 35.09 103.62 35.07 103.51 35.05C102.92 34.95 102.53 35.3 102.52 35.95C102.51 36.65 102.52 37.35 102.52 38.05C102.52 38.12 102.52 38.19 102.52 38.27C102.24 38.27 101.98 38.27 101.71 38.27C101.71 36.96 101.71 35.66 101.71 34.32C101.97 34.32 102.23 34.32 102.51 34.32C102.51 34.46 102.51 34.6 102.51 34.79ZM107.72 34.7C107.6 34.92 107.48 35.14 107.36 35.34C107.1 35.24 106.86 35.11 106.6 35.06C105.84 34.89 105.11 35.45 105.21 36.45C105.3 37.36 106.06 37.81 106.89 37.47C107.04 37.41 107.18 37.32 107.35 37.24C107.47 37.46 107.6 37.68 107.72 37.9C107.03 38.59 105.62 38.54 104.91 37.8C104.18 37.05 104.16 35.64 104.86 34.86C105.57 34.07 106.97 33.99 107.72 34.7ZM111.26 34.79C111.26 34.6 111.26 34.47 111.26 34.32C111.54 34.32 111.79 34.32 112.06 34.32C112.06 35.64 112.06 36.95 112.06 38.27C111.8 38.27 111.54 38.27 111.26 38.27C111.26 38.13 111.26 37.99 111.26 37.89C111.02 38.03 110.79 38.22 110.53 38.31C109.47 38.65 108.34 37.86 108.19 36.69C108.09 35.9 108.27 35.21 108.86 34.66C109.41 34.16 110.54 33.96 111.26 34.79ZM110.15 37.57C110.82 37.58 111.3 37.06 111.3 36.33C111.31 35.57 110.84 35.04 110.18 35.03C109.49 35.02 109.01 35.54 109 36.29C109 37.04 109.47 37.57 110.15 37.57ZM113.97 34.73C114.19 34.51 114.4 34.31 114.7 34.25C114.99 34.2 115.27 34.22 115.57 34.33C115.48 34.6 115.4 34.85 115.32 35.12C115.19 35.09 115.08 35.06 114.96 35.04C114.43 34.96 114.03 35.27 114.01 35.83C113.98 36.54 113.99 37.24 113.99 37.95C113.99 38.05 113.99 38.15 113.99 38.27C113.71 38.27 113.45 38.27 113.19 38.27C113.19 36.96 113.19 35.65 113.19 34.33C113.44 34.33 113.7 34.33 113.97 34.33C113.97 34.46 113.97 34.6 113.97 34.73ZM118.92 34.78C118.92 34.41 118.92 34.08 118.92 33.74C118.92 33.41 118.92 33.08 118.92 32.73C119.2 32.73 119.45 32.73 119.73 32.73C119.73 34.57 119.73 36.42 119.73 38.27C119.46 38.27 119.2 38.27 118.92 38.27C118.92 38.13 118.92 38 118.92 37.89C118.68 38.03 118.45 38.22 118.2 38.31C117.13 38.65 116 37.85 115.85 36.68C115.79 36.18 115.84 35.71 116.06 35.27C116.59 34.14 118.14 33.85 118.92 34.78ZM118.18 37.52C118.73 37.35 119.07 36.69 118.94 36.04C118.85 35.54 118.59 35.19 118.12 35.07C117.33 34.86 116.67 35.43 116.67 36.31C116.67 37.2 117.38 37.78 118.18 37.52Z" />
			</g>
		</g>
	</g>
</svg>